OpenSim_Sub02_CSBaseline_LCS.mot
version=1
nRows=58
nColumns=11
inDegrees=no
endheader
time	Bot_Shank	2nd_Bot_Shank	2nd_Top_Shank	Top_Shank	Bot_Thigh	Med_Thigh	Top_Thigh	BNOx	BNOy	BNOZ
17.74000000	9163.35548492	9583.37201504	11230.56014085	11211.62490065	12827.56232791	13515.75527008	13714.07960977	251.14313284	-45.37398862	102.35076644
17.75000000	9158.60497195	9585.49121401	11230.83206780	11214.38171560	12840.55238913	13555.59181327	13712.23686216	251.47176736	-46.20887341	102.53061445
17.76000000	9154.14243677	9586.75725732	11231.44239198	11217.22893109	12850.17247909	13590.86849079	13710.44889661	251.57415211	-46.97006400	102.88786501
17.77000000	9150.90713327	9586.91969966	11232.45768094	11220.21052641	12855.65502281	13619.58491149	13710.13023899	251.38683464	-47.63059226	103.42831792
17.78000000	9149.26590127	9586.02557748	11233.82388259	11223.27217472	12856.94599476	13641.01151006	13711.84085953	250.90120351	-48.18090904	104.13733438
17.79000000	9148.84199439	9584.50836661	11235.33025566	11226.23184605	12854.91829540	13656.06956890	13715.03063047	250.17988769	-48.63409303	104.97372508
17.80000000	9149.20897117	9582.82736929	11236.75558703	11228.89897584	12850.50677323	13665.79069932	13719.07523432	249.29027726	-49.00473520	105.89452632
17.81000000	9149.94039011	9581.44188775	11237.87866361	11231.08299951	12844.64627672	13671.20651267	13723.35035362	248.29976230	-49.30742651	106.85677438
17.82000000	9150.60980975	9580.81122420	11238.47827230	11232.59335249	12838.27165436	13673.34862027	13727.23167088	247.27573288	-49.55675792	107.81750556
17.83000000	9150.79078860	9581.39468088	11238.33320001	11233.23947020	12832.31775464	13673.24863344	13730.09486863	246.28557910	-49.76732039	108.73375613
17.84000000	9150.05688519	9583.65156001	11237.22223363	11232.83078807	12827.71942605	13671.93816352	13731.31562938	245.39669103	-49.95370489	109.56256241
17.85000000	9147.99216896	9588.03350451	11234.93168715	11231.18376796	12825.39737285	13670.43723148	13730.28494501	244.67529549	-50.13040030	110.26170055
17.86000000	9144.58932147	9594.69440093	11231.54048937	11228.38802457	12825.72244287	13669.31528293	13726.98895855	244.14239761	-50.30792750	110.81771002
17.87000000	9140.37182588	9603.40133985	11227.50768612	11224.88800776	12828.35120097	13668.55645024	13722.18693539	243.76025795	-50.49165273	111.25449474
17.88000000	9135.89863974	9613.89556160	11223.31772712	11221.15188164	12832.89247528	13668.10574826	13716.68981000	243.48721105	-50.68659777	111.59845577
17.89000000	9131.72872056	9625.91830654	11219.45506205	11217.64781031	12838.95509392	13667.90819186	13711.30851687	243.28159146	-50.89778439	111.87599420
17.90000000	9128.42102588	9639.21081500	11216.40414061	11214.84395787	12846.14788503	13667.90879593	13706.85399047	243.10173374	-51.13023436	112.11351109
17.91000000	9126.53451322	9653.51432731	11214.64941251	11213.20848843	12854.07967673	13668.05257531	13704.13716526	242.90597242	-51.38896945	112.33740751
17.92000000	9126.62814012	9668.57008383	11214.67532744	11213.20956609	12862.35929715	13668.28454489	13703.96897573	242.65264207	-51.67901142	112.57408452
17.93000000	9129.26086409	9684.11932489	11216.96633509	11215.31535495	12870.59557442	13668.54971953	13707.16035634	242.30007724	-52.00538205	112.84994319
17.94000000	9134.99164268	9699.90329084	11222.00688518	11219.99401911	12878.39733666	13668.79311411	13714.52224157	241.80661246	-52.37310310	113.19138460
17.95000000	9144.37943341	9715.66322201	11230.28142738	11227.71372268	12885.37341200	13668.95974348	13726.86556590	241.13058231	-52.78719634	113.62480981
17.96000000	9157.96328638	9731.14174077	11242.25752201	11238.92756767	12891.13775960	13668.99612134	13744.97695638	240.23142045	-53.25246619	114.17587431
17.97000000	9175.50835065	9746.13519585	11257.74615398	11253.50311751	12895.50380693	13668.90702760	13768.69808937	239.11128955	-53.76526725	114.84124958
17.98000000	9195.77445046	9760.50972838	11275.70539356	11270.54730029	12898.54409794	13668.77293208	13796.64311687	237.82785871	-54.31097753	115.57995576
17.99000000	9217.45422247	9774.13614385	11295.03630930	11289.11620954	12900.34849376	13668.67936309	13827.34415333	236.44250661	-54.87424146	116.34849673
18	9239.24030336	9786.88524776	11314.63996974	11308.26593883	12901.00685550	13668.71184895	13859.33331323	235.01661194	-55.43970345	117.10337636
18.01000000	9259.82532980	9798.62784560	11333.41744343	11327.05258169	12900.60904430	13668.95591796	13891.14271101	233.61155338	-55.99200794	117.80109850
18.02000000	9277.90193847	9809.23474285	11350.26979892	11344.53223168	12899.24492127	13669.49709844	13921.30446116	232.28870962	-56.51579935	118.39816702
18.03000000	9292.18413417	9818.57991785	11364.11514483	11359.77466580	12897.00762547	13670.41937039	13948.37032244	231.10844115	-56.99602302	118.85217690
18.04000000	9302.21660773	9826.66069333	11374.53402225	11372.38160609	12894.11772553	13671.74652419	13971.65572622	230.09152606	-57.42932211	119.16314024
18.05000000	9308.62314049	9833.63462075	11381.96749554	11382.64578992	12890.96132564	13673.42416167	13991.46814155	229.20732353	-57.82753572	119.38617045
18.06000000	9312.09963122	9839.66995992	11386.91413925	11390.90613643	12887.93559299	13675.39265922	14008.18133703	228.42175631	-58.20351851	119.58006349
18.07000000	9313.34197871	9844.93497067	11389.87252794	11397.50156470	12885.43769476	13677.59239321	14022.16908127	227.70074715	-58.57012513	119.80361528
18.08000000	9313.04608174	9849.59791279	11391.34123617	11402.77099387	12883.86479816	13679.96374002	14033.80514287	227.01021880	-58.94021023	120.11562176
18.09000000	9311.90783908	9853.82704612	11391.81883850	11407.05334303	12883.61407038	13682.44707603	14043.46329045	226.31609402	-59.32662847	120.57487888
18.10000000	9310.62314951	9857.79063045	11391.80390949	11410.68753131	12885.08267861	13684.98277762	14051.51729260	225.58429557	-59.74223451	121.24018257
18.11000000	9309.88791182	9861.65692562	11391.79502371	11414.01247780	12888.66779005	13687.51122116	14058.34091793	224.78074620	-60.19988299	122.17032877
18.12000000	9310.38737840	9865.59232349	11392.28377021	11417.36061098	12894.75393472	13689.97203286	14064.30636454	223.87212087	-60.71210344	123.42151987
18.13000000	9312.39292335	9869.69059984	11393.49017681	11420.81203519	12903.23437321	13692.27567555	14069.72477666	222.85433650	-61.27878512	124.94913438
18.14000000	9315.63827824	9873.95119956	11395.28150370	11424.11907682	12913.36418967	13694.29472788	14074.82798749	221.76129642	-61.88339720	126.57757700
18.15000000	9319.82124311	9878.36726324	11397.50143498	11427.01215632	12924.35581783	13695.89923661	14079.84252968	220.62944259	-62.50831149	128.12249921
18.16000000	9324.63961796	9882.93193150	11399.99365477	11429.22169413	12935.42169147	13696.95924849	14084.99493592	219.49521702	-63.13589978	129.39955250
18.17000000	9329.79120282	9887.63834492	11402.60184718	11430.47811069	12945.77424432	13697.34481030	14090.51173889	218.39506170	-63.74853385	130.22438838
18.18000000	9334.97379771	9892.47964410	11405.16969633	11430.51182646	12954.62591013	13696.92596879	14096.61947126	217.36541861	-64.32858549	130.41265833
18.19000000	9339.88520265	9897.44896964	11407.54088634	11429.05326187	12961.18912266	13695.57277074	14103.54466570	216.44272975	-64.85842652	129.78001385
18.20000000	9344.22491836	9902.53859198	11409.55934896	11425.83540901	12964.68240331	13693.15727264	14111.50979802	215.66308655	-65.32060429	128.14454141
18.21000000	9347.82402926	9907.67345657	11411.08817565	11420.79022813	12964.79527772	13689.70702465	14120.42346132	215.03545717	-65.71125210	125.51272298
18.22000000	9350.73666327	9912.66438834	11412.02293493	11414.18694439	12962.01565636	13685.51314950	14129.66219581	214.52283403	-66.04953218	122.21038395
18.23000000	9353.03855349	9917.31115790	11412.26234123	11406.32745218	12956.90878551	13680.89230097	14138.55100423	214.08375605	-66.35683753	118.59428302
18.24000000	9354.80543303	9921.41353588	11411.70510897	11397.51364593	12950.03991142	13676.16113282	14146.41488933	213.67676216	-66.65456111	115.02117888
18.25000000	9356.11303499	9924.77129289	11410.24995256	11388.04742003	12941.97428037	13671.63629880	14152.57885384	213.26039130	-66.96409589	111.84783022
18.26000000	9357.03709246	9927.18419954	11407.79558643	11378.23066889	12933.27713862	13667.63445269	14156.36790051	212.79318241	-67.30683486	109.43099573
18.27000000	9357.65333855	9928.45202645	11404.24072499	11368.36528693	12924.51373244	13664.47224825	14157.10703208	212.23367442	-67.70417099	108.12743410
18.28000000	9358.03750635	9928.37454424	11399.48408267	11358.75316855	12916.24930810	13662.46633925	14154.12125129	211.54040626	-68.17749725	108.29390403
18.29000000	9358.26532898	9926.75152352	11393.42437388	11349.69620816	12909.04911185	13661.93337945	14146.73556087	210.67191688	-68.74820661	110.28716420
18.30000000	9358.41253952	9923.38273491	11385.96031304	11341.49630017	12903.47838997	13663.19002261	14134.27496358	209.58674519	-69.43769206	114.46397331
18.31000000	9358.55487107	9918.06794902	11376.99061458	11334.45533898	12900.10238872	13666.55292250	14116.06446216	208.24343014	-70.26734656	121.18109005
